<svg xmlns="http://www.w3.org/2000/svg" viewBox="0 0 1875 588"><defs><style>.a,.b,.c{fill:none;stroke:#000;stroke-miterlimit:10;}.a,.b{stroke-width:30px;}.b,.c{stroke-linecap:round;}.c{stroke-width:25px;}</style></defs><title>logo</title><path d="M777.54,392.28a9.84,9.84,0,0,1-9.72,9.72H754.5a9.84,9.84,0,0,1-9.72-9.72v-95q0-27.72-13.32-41.4t-37.08-13.68q-22.68,0-36.54,13.68T644,297.24v95a9.84,9.84,0,0,1-9.72,9.72H620.94a9.84,9.84,0,0,1-9.72-9.72V224.52a9.84,9.84,0,0,1,9.72-9.72h13.32a9.84,9.84,0,0,1,9.72,9.72v11.16q6.82-9,20.34-16.74t35.46-7.74a86,86,0,0,1,31.32,5.58,70.4,70.4,0,0,1,24.66,15.84,71.12,71.12,0,0,1,16,25.38,94.65,94.65,0,0,1,5.76,33.84Z"/><path d="M880.5,211.2q19.44,0,34.56,5.94A77.64,77.64,0,0,1,941,233.52a75.87,75.87,0,0,1,17.1,25.38,105.94,105.94,0,0,1,7.74,32.58,74,74,0,0,1,.36,7.74v18.72a63.75,63.75,0,0,1-.36,7.38,115.68,115.68,0,0,1-7.92,32.76A74.11,74.11,0,0,1,941,383.28a77.64,77.64,0,0,1-25.92,16.38q-15.12,5.94-34.56,5.94t-34.56-5.94A77.64,77.64,0,0,1,820,383.28a76,76,0,0,1-17.1-25.2,103.53,103.53,0,0,1-7.74-32.76q-.37-2.88-.54-7.38c-.13-3-.18-6.12-.18-9.36s0-6.36.18-9.36.29-5.58.54-7.74a104.81,104.81,0,0,1,7.74-32.58A75.57,75.57,0,0,1,820,233.52a77.64,77.64,0,0,1,25.92-16.38Q861.06,211.2,880.5,211.2Zm52.56,112.32a133.14,133.14,0,0,0,.72-14.94,143.36,143.36,0,0,0-.72-15.3,77.75,77.75,0,0,0-4.68-20.16,48.82,48.82,0,0,0-10.08-16.2,46.5,46.5,0,0,0-15.84-10.8q-9.37-4-22-4t-22,4a46.31,46.31,0,0,0-15.84,10.8,48.5,48.5,0,0,0-10.08,16.2,76.94,76.94,0,0,0-4.68,20.16,138.28,138.28,0,0,0-.72,15.3,128.54,128.54,0,0,0,.72,14.94,76.94,76.94,0,0,0,4.68,20.16,48.5,48.5,0,0,0,10.08,16.2,46.31,46.31,0,0,0,15.84,10.8q9.35,4,22,4t22-4a46.5,46.5,0,0,0,15.84-10.8,48.82,48.82,0,0,0,10.08-16.2A77.75,77.75,0,0,0,933.06,323.52Z"/><path d="M1018,235.68a96,96,0,0,1,7.56-8.82,49.49,49.49,0,0,1,9.9-7.92,53,53,0,0,1,13.14-5.58,64.55,64.55,0,0,1,17.64-2.16q22,0,36.36,8.1a57.9,57.9,0,0,1,22.68,23.22,142.1,142.1,0,0,1,9.9-12.24,56,56,0,0,1,12.24-10.08,58.79,58.79,0,0,1,15.84-6.66,81.28,81.28,0,0,1,20.7-2.34q36.36,0,52.92,21.78t16.56,59.58v99.72a9.82,9.82,0,0,1-9.71,9.72h-13.32a9.85,9.85,0,0,1-9.73-9.72V296.16q0-27.72-10.8-40.86t-31.68-13.14q-19.08,0-30.78,12.6t-11.69,38.88v98.64A9.85,9.85,0,0,1,1126,402h-13.32a9.84,9.84,0,0,1-9.72-9.72V296.16q0-27.72-10.8-40.86t-31.67-13.14q-19.1,0-30.79,12.6T1018,293.64v98.64a9.84,9.84,0,0,1-9.72,9.72H995a9.84,9.84,0,0,1-9.72-9.72V224.52A9.84,9.84,0,0,1,995,214.8h13.32a9.84,9.84,0,0,1,9.72,9.72Z"/><path d="M1273,354.84q0-14.4,5.76-25.2a55,55,0,0,1,15.84-18.36A85.7,85.7,0,0,1,1318.15,299a175.15,175.15,0,0,1,28.62-7.2l50.76-8.28v-4.68q0-18.36-12.06-27.54t-30.06-9.18q-15.86,0-23.94,5.76a59.81,59.81,0,0,0-13.86,13.68,11.91,11.91,0,0,1-4.68,4,17.76,17.76,0,0,1-6.84,1.08h-10.8a9.92,9.92,0,0,1-7-2.88,8,8,0,0,1-2.7-6.84q.71-7.92,6.3-16.2A55.21,55.21,0,0,1,1307,226a88.69,88.69,0,0,1,22-10.62,83.14,83.14,0,0,1,26.46-4.14,93.45,93.45,0,0,1,30.06,4.68,66.56,66.56,0,0,1,23.76,13.68,62.34,62.34,0,0,1,15.48,22.32q5.57,13.32,5.58,30.6v109.8a9.84,9.84,0,0,1-9.72,9.72h-13.32a9.84,9.84,0,0,1-9.72-9.72V377.52a33,33,0,0,1-10.08,12.06,68.45,68.45,0,0,1-15.66,8.82,95.54,95.54,0,0,1-18.36,5.4,96.6,96.6,0,0,1-17.82,1.8,79.83,79.83,0,0,1-25.74-4,62.15,62.15,0,0,1-19.8-10.62,46.61,46.61,0,0,1-12.6-16A45.78,45.78,0,0,1,1273,354.84Zm66.24,19.8a68.55,68.55,0,0,0,23.76-4,56,56,0,0,0,18.54-11A47.65,47.65,0,0,0,1393.39,343a54.76,54.76,0,0,0,4.14-21.6v-9l-42.48,6.84q-22.68,3.6-36,11.52t-13.32,20.52a18.85,18.85,0,0,0,1.8,7.92,23.22,23.22,0,0,0,5.76,7.56,28.86,28.86,0,0,0,10.26,5.76A48.72,48.72,0,0,0,1339.21,374.64Z"/><path d="M1536.84,211.2q22.32,0,35.64,7.74t20.16,16.74V156.12a9.84,9.84,0,0,1,9.72-9.72h13.32a9.84,9.84,0,0,1,9.72,9.72V392.28a9.84,9.84,0,0,1-9.72,9.72h-13.32a9.84,9.84,0,0,1-9.72-9.72V381.12q-7.2,9.72-20.52,17.1t-35.28,7.38a82.69,82.69,0,0,1-31.5-5.94,73.5,73.5,0,0,1-25.38-17.1,84.11,84.11,0,0,1-17.28-27,109.34,109.34,0,0,1-7.56-35.64q-.36-5.4-.36-11.7t.36-11.7a109.34,109.34,0,0,1,7.56-35.64A82,82,0,0,1,1480,234.06a74.74,74.74,0,0,1,25.38-16.92A82.69,82.69,0,0,1,1536.84,211.2Zm55.8,112.68q.36-5.4.36-14.22t-.36-14.22q-1.08-25.56-15.3-39.42t-36.9-13.86q-23.76,0-37.44,15.12t-15.12,41q-.36,10.08,0,20.16,1.44,25.92,15.12,41t37.44,15.12q22.32,0,36.72-13.68T1592.64,323.88Z"/><path d="M1738.8,331.44,1688,395.16a43,43,0,0,1-4.14,4.32,10.39,10.39,0,0,1-7.38,2.52H1660a8.33,8.33,0,0,1-6.12-2.52,7.93,7.93,0,0,1-2.52-5.76,8.87,8.87,0,0,1,1.44-5l65.88-82.44-62.28-78.12a8.87,8.87,0,0,1-1.44-5,7.93,7.93,0,0,1,2.52-5.76,8.33,8.33,0,0,1,6.12-2.52h17.28a10.39,10.39,0,0,1,7.38,2.52,43,43,0,0,1,4.14,4.32l47.88,60.12,47.52-60.12a43,43,0,0,1,4.14-4.32,10.39,10.39,0,0,1,7.38-2.52h16.56a8.33,8.33,0,0,1,6.12,2.52,7.93,7.93,0,0,1,2.52,5.76,8.87,8.87,0,0,1-1.44,5L1760.4,307l65.16,81.72a8.87,8.87,0,0,1,1.44,5,7.93,7.93,0,0,1-2.52,5.76,8.33,8.33,0,0,1-6.12,2.52h-17.28a10.39,10.39,0,0,1-7.38-2.52,43,43,0,0,1-4.14-4.32Z"/><circle class="a" cx="284" cy="294" r="224"/><circle cx="284" cy="188.35" r="42.32"/><path d="M343.88,264.14c-41.52,14.2-26.35,72.48-7.49,110.85,0,.6-52.81-45.91-52.81-45.91H284S231.22,375.59,231.22,375c18.87-38.37,34-96.65-7.49-110.85Z"/><line class="b" x1="218.28" y1="425.65" x2="272.72" y2="331.35"/><line class="b" x1="349.72" y1="425.65" x2="295.28" y2="331.35"/><line class="c" x1="414" y1="231.83" x2="296.59" y2="263.29"/><line class="c" x1="154" y1="231.83" x2="271.41" y2="263.29"/><path d="M233,240l23.52,6.46a104,104,0,0,0,55,0L335,240l1,17-52,20-51-24Z"/></svg>